<?xml version="1.0" encoding="UTF-8"?>
<svg xmlns="http://www.w3.org/2000/svg" viewBox="0 0 600 400" width="600" height="400">
    <defs>
        <linearGradient id="bg" x1="0" y1="0" x2="1" y2="1">
            <stop offset="0%" stop-color="#4A90E2"/>
            <stop offset="100%" stop-color="#50E3C2"/>
        </linearGradient>
    </defs>
    <rect width="600" height="400" fill="url(#bg)"/>
    <g opacity="0.18" fill="#fff">
        <circle cx="80" cy="80" r="50"/>
        <circle cx="540" cy="320" r="70"/>
        <circle cx="520" cy="60" r="34"/>
    </g>
    <!-- Newspaper icon -->
    <g transform="translate(220,120)">
        <rect x="0" y="0" width="160" height="160" rx="12" fill="#fff" opacity="0.95"/>
        <rect x="20" y="20" width="120" height="14" rx="3" fill="#4A90E2"/>
        <rect x="20" y="44" width="120" height="6" rx="2" fill="#B7C8DA"/>
        <rect x="20" y="56" width="100" height="6" rx="2" fill="#B7C8DA"/>
        <rect x="20" y="74" width="55" height="55" rx="6" fill="#FFD166"/>
        <rect x="85" y="74" width="55" height="6" rx="2" fill="#B7C8DA"/>
        <rect x="85" y="86" width="55" height="6" rx="2" fill="#B7C8DA"/>
        <rect x="85" y="98" width="40" height="6" rx="2" fill="#B7C8DA"/>
        <rect x="20" y="138" width="120" height="6" rx="2" fill="#B7C8DA"/>
    </g>
    <text x="300" y="340" font-family="Montserrat, sans-serif" font-size="22" font-weight="600" fill="#fff" text-anchor="middle" opacity="0.95">ЗДО №52 · Новини</text>
</svg>
